<svg id="Layer_1" data-name="Layer 1" xmlns="http://www.w3.org/2000/svg" viewBox="0 0 738.56 526.23"><title>yimin_logo</title><path d="M879.12,125.94c-4,8.9-8.29,17.65-12.45,26.47-6.49,13.76-12.93,27.55-19.44,41.3q-8,16.78-16,33.52c-5.57,11.63-11.2,23.23-16.77,34.86s-11.33,23.53-16.8,35.39c-5.6,12.16-10.89,24.46-16.41,36.65-5.12,11.29-10.5,22.45-15.52,33.77-4.62,10.43-9,21-13.32,31.51s-8.63,21.12-12.75,31.77c-8.07,20.86-13.88,41.91-12.7,64.88,1.48,28.6.9,57.31,1.35,86,.3,19.33.89,38.64,1.29,58,.13,6.12-.43,6.75-6.32,6.76q-20.13,0-40.28,0V357.17a.86.86,0,0,0,.51.05c1.56-.51,3.52-1.61,4.1-3q9.93-23.25,19.45-46.69,10.2-25,20.12-50.15c5.34-13.53,10.31-27.21,15.74-40.7,5.18-12.87,10.61-25.64,16.19-38.35q8-18.15,16.46-36.05a186.09,186.09,0,0,1,9.63-18,8.18,8.18,0,0,1,5.84-3.41c28.33-.24,56.67-.16,85-.24C880.45,120.63,880.28,123.35,879.12,125.94Z" transform="translate(-314.15 -120.63)"/><path d="M486,336a1.46,1.46,0,0,1,2.54,0c1.79,3.12,3.22,5.7,4.83,8.18,5.91,9.17,12.23,18.09,17.74,27.5a52,52,0,0,1,5.72,15.19c1.57,7.4-.73,14.1-4.63,20.78-8.72,15-16.62,30.43-24.87,45.67-5,9.3-10.12,18.57-15.16,27.86q-8.5,15.72-17,31.43c-8.22,15.28-16.49,30.53-24.61,45.85-6.59,12.42-12.87,25-19.52,37.4C403,611,395,626.2,386,640.87c-1.85,3-7.52,5-11.54,5.19-13.62.65-27.28.31-40.92.33-5.17,0-10.33,0-15.49-.07-3.88,0-4.86-1.53-3-4.91,7.57-13.59,15.27-27.09,22.84-40.68,6.84-12.27,13.47-24.61,20.38-36.91,7.84-14,15.89-27.86,23.79-41.82q9.56-16.83,19-33.74c6.85-12.28,13.64-24.58,20.47-36.86q13.76-24.72,27.54-49.41c7.6-13.56,15.31-27.05,22.91-40.6C476.42,353.4,480.81,345.38,486,336Z" transform="translate(-314.15 -120.63)"/><path d="M1032.71,646.34c-13-.07-26-.54-39-.11-7.06.23-11-2.8-14.1-8.62q-18.87-35.49-38-70.82l-36-66.75c-9.17-17-18.41-34-27.42-51.12-8-15.07-14.77-30.82-23.72-45.25-6.08-9.82-5.79-17.19.3-26.7C863.06,364,869.86,350.16,878,335.2a1.47,1.47,0,0,1,2.53-.06c2.35,3.86,4.34,7,6.17,10.27q14,24.82,28,49.72c9,16.16,17.87,32.43,27,48.56,8,14.13,16.24,28.07,24.18,42.21,8.91,15.86,17.53,31.87,26.38,47.75,5.55,10,11.37,19.77,16.92,29.72,5.17,9.25,10.06,18.65,15.22,27.9,9.41,16.85,19,33.63,28.35,50.48" transform="translate(-314.15 -120.63)"/><path d="M459.39,646.29h-25c-4.45,0-5.59-1.61-3.54-5.43,5.49-10.2,11.2-20.27,16.72-30.45,6.39-11.79,12.65-23.65,19-35.45,9.11-16.89,18.28-33.75,27.37-50.65q15.65-29.07,31.21-58.16,7.5-14,15.08-27.94c1.83-3.37,3.76-3.48,5.72-.06,8.53,14.92,16.93,29.93,25.4,44.89a33.32,33.32,0,0,0,2.94,4.58c5.55,6.89,3,13.41-.55,20.1-7.22,13.74-14.16,27.63-21.41,41.36-6.33,12-13,23.79-19.38,35.75-8.11,15.16-16.08,30.4-24.14,45.59-1.48,2.77-3.3,5.37-4.58,8.22-2.45,5.45-6.86,7.41-12.41,7.44-10.81.06-21.63,0-32.45,0Z" transform="translate(-314.15 -120.63)"/><path d="M823.62,436a1.47,1.47,0,0,1,2.2.37c2,3.31,3.9,6.44,5.64,9.66,10.26,19.09,20.37,38.26,30.69,57.32,9,16.56,18.22,33,27.19,49.53,8.82,16.31,17.42,32.74,26.17,49.08,6.86,12.82,13.83,25.57,20.65,38.4a13.32,13.32,0,0,1,1,3.79,1.47,1.47,0,0,1-1.08,1.69,24,24,0,0,1-3.56.66h-.19c-19.12,0-38.24-.22-57.35-.2-4.59,0-7.63-1.29-10-5.69-9.22-17.38-18.87-34.54-28.33-51.79-6.76-12.32-13.64-24.57-20.17-37-6.62-12.62-12.86-25.45-19.28-38.17-1.94-3.83-3.74-7.75-5.94-11.42-2-3.36-2.24-6.59-.34-9.89q16-28,32.19-55.8a.62.62,0,0,1,.11-.17A3.39,3.39,0,0,1,823.62,436Z" transform="translate(-314.15 -120.63)"/><path d="M487.88,125.94c4,8.9,8.29,17.65,12.45,26.47,6.49,13.76,12.93,27.55,19.44,41.3q8,16.78,16,33.52c5.57,11.63,11.2,23.23,16.77,34.86s11.33,23.53,16.8,35.39c5.6,12.16,10.89,24.46,16.41,36.65,5.12,11.29,10.5,22.45,15.52,33.77,4.62,10.43,9,21,13.32,31.51s8.63,21.12,12.75,31.77c8.07,20.86,13.88,41.91,12.7,64.88-1.48,28.6-.9,57.31-1.35,86-.3,19.33-.89,38.64-1.29,58-.13,6.12.43,6.75,6.32,6.76q20.13,0,40.28,0V357.17a.86.86,0,0,1-.51.05c-1.56-.51-3.52-1.61-4.1-3q-9.93-23.25-19.45-46.69-10.2-25-20.12-50.15c-5.34-13.53-10.31-27.21-15.74-40.7-5.18-12.87-10.61-25.64-16.19-38.35q-8-18.15-16.46-36.05a186.09,186.09,0,0,0-9.63-18,8.18,8.18,0,0,0-5.84-3.41c-28.33-.24-56.67-.16-85-.24C486.55,120.63,486.72,123.35,487.88,125.94Z" transform="translate(-314.15 -120.63)"/></svg>